<?xml version="1.0" encoding="UTF-8"?>
<svg id="Layer_1" data-name="Layer 1" xmlns="http://www.w3.org/2000/svg" viewBox="0 0 679.47 181.44">
  <defs>
    <style>
      .cls-1 {
        fill-rule: evenodd;
      }

      .cls-1, .cls-2 {
        fill: #211e1f;
      }

      .cls-3 {
        fill: #221f1f;
      }

      .cls-4 {
        fill: #cc2028;
      }
    </style>
  </defs>
  <g>
    <polygon class="cls-4" points="283.97 126.29 278.25 164.56 285.18 167.3 291.95 123.8 283.97 126.29"/>
    <polygon class="cls-4" points="300.21 121.5 292.83 169.76 289.23 168.66 297.03 122.35 300.21 121.5"/>
    <path class="cls-1" d="M292.76,95.48c15.01-4.22,28.99-4.77,41.89-1.89,1.89-4.01,3.64-7.71,4.3-9.1C360.09,44.33,388.64,13.61,428.36.68c-34.29-2.29-67.75,1.16-100.32,10.72-7.51,14.5-13.75,32.12-16.47,47.86-1.97-13.39-1.49-29.5.85-43.28-18.25,2.87-35.38,8.1-51.08,16.66,3.97,10.71,6.61,24.46,8.15,35.88-4.35-9.46-10.59-21.02-18.18-29.55-16.2,5.21-29.87,14.47-41.18,27.33,8.72,7.65,19.33,17.55,26.04,27.58-9.43-6.14-23.69-11.87-34.68-16.57-14.37,13.47-21.7,27.67-26.97,41.12,10.86.4,24.53,3.6,34.46,7.57-13.81.33-23.09-.43-32.91,3.03-3.03,5.82-5.57,17.29-3.12,26.8,2.31-.78,4.76-1.61,7.3-2.46,12-3.26,39.5-1.79,42.37-1.79,0,0,1.36,2.48,2.4,4.24.39.65,2.19,3.76,2.24,3.76,2.95-.29,11.56-.66,21.67-.85.75.97,2.13,1.82,3.68,2.54,16.57,7.7,36.19,14.84,59.19,19.84,4.81,1.04,8.13-.66,9.04-1.89,0,0,.44-.49,1.51-2.16,1.07-1.67,7.44-12.73,7.64-13.08.2-.35.72-1.45,1.7-1.51.98-.07,1.41.93,1.82,1.35.41.42,7.24,13.12,7.67,13.76.43.64,2.81,1.26,3.75.14.94-1.12,4.17-6.31,4.17-6.31.94-1.65,2.61-6.06,1.78-24.89-1.04-23.44-2.43-30.49-6.03-31.06-29.94-6.07-73.51,7.29-89.88,15.74l-12.66.75s-2.23.24-5.8.68c13.12-16.29,30.33-29.87,56.26-37.15ZM349.25,152.03v.07s0-.04-.01-.06c0,0,0,0,.01,0ZM266.9,134.19c.42-1.53,3.12-3.04,5.43-3.91,2.31-.87,21.71-7.82,34.87-10.38,13.15-2.55,24.49-1.65,25.84-1.54,3.97.31,10.9,1.03,12.25,4.18,2.07,4.84,3.29,23.67,2.54,40.29-.03.6-.62,2.47-3.58,4.92-.34.28-.77.42-1.2.4-.23,0-.48-.02-.71-.04-.34-.03-.63-.24-.77-.55-.7-1.53-3.14-6.81-3.66-7.95-.62-1.34-3.58-7.01-4.87-8.38-1.29-1.37-3.63-2.21-5.54-1.96-1.91.26-5.53,2.27-7.64,6.29-2.11,4.02-7.84,13.54-8.58,14.63-.74,1.08-2.73,1.66-5.07,1.88-2.34.22-5.1.22-7.1-.54,0,0-9.12-2.37-15.75-4.89-6.63-2.52-8.68-3.92-12.74-5.18-4.06-1.25-5.23-3.3-5.29-4.9-.06-1.6,1.16-20.84,1.58-22.37ZM178.19,135.6c9.23-2.11,20.08-4.58,35.44-5.55,5.91-.38,5.35-4.25.29-7.34-9.09-5.52-19.5-8.42-30.47-10.41,11.16-1.34,22.63-1.64,34.54-.44-7.77-6.44-16.55-11.66-26.35-15.65,10.28.68,20.04,3,29.36,6.7-5.78-7.28-12.16-13.46-19.14-18.56,11.1,3.11,24.3,7.74,38.14,14.62,3.63,1.81,6.49,1.41,3.8-3.53-5.71-10.49-12.78-22.05-23.05-31.94,8.33,2.53,15.55,6.38,21.86,11.33-1.22-6.9-4.16-13.29-9.59-18.95,9.97,3.81,16.04,10.8,20.85,18.87-.31-9.39-2-18.84-5.08-28.33,8.57,7.95,13.65,19.73,18.69,30.8,3.01,6.58,8.84,5.16,8.69-3.36-.22-13.51-3.08-26.5-6.63-39.16,5.41,7.36,9.68,15.51,12.8,24.46,1.8-10.46,2.98-20.76,3.09-30.73,2.05,10.96,5.6,21.47,9.35,31.92,1.54-12.21,4.11-24.32,10.37-36.09-1.98,13.71-.8,27.99,1.13,42.39,1.09,8.04,9.08,5.66,10.09-1.34,2.76-19.13,8.46-35.98,16.76-50.05-1.12,6.78.72,12.68,2.99,18.46,7.67-10.46,17.99-18.68,30.54-25.07-9.48,8.3-15.63,17.95-19.89,28.4,18.07-15.92,36.24-25.41,54.51-31.28-29.36,16.48-51.18,44.15-69.18,77.49-49.11-2.36-87.41,16.85-115.85,55.71-13.3.6-26.53,3.36-39.68,7.6,4.18-3.71,9.94-7.13,17.99-10.13-5.29-1.12-10.72-1.65-16.36-.83Z"/>
  </g>
  <path class="cls-4" d="M560.83,94.68l-21.31,37.58h14.9s-10.55,18.63-10.55,18.63h-39.51s31.88-56.22,31.88-56.22h24.6Z"/>
  <path class="cls-4" d="M515.5,94.68l-21.31,37.58h14.9s-10.55,18.63-10.55,18.63h-39.51s31.88-56.22,31.88-56.22h24.6Z"/>
  <path class="cls-4" d="M628.47,101.03c-.39-1.91-2.48-3.5-6.25-4.76-3.78-1.26-8.84-1.89-15.19-1.89-5.81,0-11.09.58-15.83,1.73-4.74,1.15-8.6,2.75-11.58,4.79-2.97,2.04-5.69,5.27-8.14,9.69-1.7,3.06-2.45,5.58-2.24,7.55.2,1.97.99,3.51,2.34,4.63,1.35,1.12,4.39,2.91,9.1,5.38,4.72,2.45,7.57,4.19,8.54,5.23.93,1.04.46,3.26-1.43,6.66-.86,1.54-1.9,2.7-3.13,3.49-1.23.78-2.66,1.18-4.28,1.18s-2.59-.31-2.88-.93c-.3-.62.16-2.01,1.35-4.17l3.89-7.01h-22.72l-2.09,3.78c-2.4,4.32-3.53,7.66-3.4,10.01.13,2.35,2.09,4.29,5.87,5.8,3.79,1.52,8.95,2.28,15.5,2.28,5.97,0,11.56-.66,16.79-1.98,5.22-1.32,9.16-2.95,11.81-4.9,2.65-1.95,5.11-4.97,7.39-9.08,3.13-5.65,3.99-9.75,2.58-12.29-1.42-2.54-6.47-5.79-15.16-9.75-3.03-1.38-4.69-2.55-4.96-3.52-.31-.97.07-2.42,1.14-4.35.83-1.5,1.83-2.61,2.99-3.35,1.16-.74,2.48-1.11,3.95-1.11,1.35,0,2.17.27,2.45.82.28.55-.14,1.82-1.24,3.81l-2.37,4.27h22.72l1.26-2.28c2.54-4.58,3.62-7.83,3.23-9.74Z"/>
  <path class="cls-2" d="M249.27,162.98l-216.82-.04,222.39,2.7c-1.17-.53-2.36-1.03-3.52-1.58-.76-.35-1.44-.71-2.05-1.09Z"/>
  <path class="cls-4" d="M354.11,151.56h2.82c9.84,0,16.54-.33,20.1-1,3.56-.67,6.58-1.91,9.08-3.74,2.49-1.82,4.82-4.63,6.98-8.41l2.97-5.19c2.08-3.65,2.62-6.35,1.62-8.12-1.01-1.76-4.12-3.03-9.34-3.79,5.47-.69,9.43-1.68,11.9-2.97,2.46-1.29,4.63-3.57,6.5-6.84,2.76-4.84,3.08-8.15,2.35-10.53-1.04-3.41-3.58-4.88-7.14-5.59-3.57-.71-9.2-1.07-16.91-1.07h-24.4l-11.17,20.81c2.76,4.08,3.67,13.25,4.48,31.28.08,1.85.14,3.57.18,5.17ZM379.62,105.14c2.5.02,4.14.13,4.9.31.77.19,1.22.63,1.36,1.33.14.7-.29,1.93-1.29,3.68-1.9,3.32-3.38,5.33-4.43,6.04-1.06.7-2.79,1.05-5.19,1.05-.58,0-1.4.01-2.46.04l7.11-12.45ZM367.53,126.31c3.6.07,5.68.36,6.24.86.56.51.16,1.96-1.21,4.36l-2.98,5.22c-1.29,2.26-2.57,3.68-3.85,4.25-1.28.58-3.66.9-7.15.97l8.95-15.67Z"/>
  <path class="cls-4" d="M470.21,94.64h-35.08s-44.71,56.16-44.71,56.16h25.4s7.3-10.09,7.3-10.09h8.64s-4.64,10.1-4.64,10.1h4.06s0,0,0,0h21.26l2.22-7.05s0,0,0,0l15.55-49.12ZM431.29,125.42c3.1-3.93,8.73-9.42,15.42-18.02-4.27,9.29-4.84,11.71-7.37,18.02h-8.05Z"/>
  <path class="cls-2" d="M353.95,163c-.12,1.67-.27,3.08-.46,4.26l37.18.61,2.89-4.86h-39.62Z"/>
  <path class="cls-2" d="M679.47,72.4l-328.07-1.04c-2.06,3.09-3.72,6.75-6.03,11.13l314.47.61-37.79,79.92h-17.18l-4.54,8.97,28.67.61,50.46-100.2Z"/>
  <g>
    <path class="cls-3" d="M391.26,179.28l10.03-16.29,18.68-.08c1.14,0,1.94.28,2.4.86.46.58.44,1.27-.06,2.07l-2.82,4.58c-.49.8-1.33,1.49-2.5,2.08-1.17.59-2.33.88-3.47.88h-2.28s3.04,5.35,3.04,5.35l-.28.45-4,.02-3.23-5.79-8.5.04-3.59,5.82h-3.42ZM400.97,170.97l13.61-.06c.49,0,.84-.06,1.05-.16.21-.11.42-.33.63-.66l2.4-3.9c.2-.33.27-.55.19-.67-.08-.11-.36-.17-.85-.17l-13.61.06c-.47,0-.81.06-1.04.17s-.45.34-.65.67l-2.4,3.9c-.2.33-.26.55-.17.66.09.1.37.16.84.15Z"/>
    <path class="cls-3" d="M430.21,179.11l8.23-13.37c.5-.82,1.33-1.51,2.49-2.09,1.16-.58,2.31-.87,3.45-.87l14.56-.06c1.14,0,1.94.28,2.4.85.46.57.44,1.26-.06,2.08l-8.23,13.37-3.46.02,3.52-5.71-15.95.07-3.52,5.71-3.42.02ZM438.66,170.94l15.95-.07,3-4.87c.2-.33.27-.55.19-.67-.08-.11-.36-.17-.85-.17l-13.61.06c-.47,0-.81.06-1.04.17s-.45.34-.65.67l-3,4.87Z"/>
    <path class="cls-3" d="M473.48,178.93c-1.14,0-1.94-.28-2.39-.85-.45-.57-.42-1.26.08-2.08l6.42-10.42c.5-.82,1.33-1.51,2.49-2.09,1.16-.58,2.31-.87,3.45-.87l18.65-.08-1.51,2.45-18.17.08c-.47,0-.81.06-1.04.17-.23.11-.45.34-.65.67l-6,9.74c-.2.33-.26.55-.17.67.09.11.36.17.83.17l18.17-.08-1.51,2.45-18.65.08Z"/>
    <path class="cls-3" d="M507.99,178.78l10.05-16.31h3.42s-10.05,16.3-10.05,16.3h-3.42Z"/>
    <path class="cls-3" d="M527.59,178.7l10.05-16.31,4.09-.02,7.28,12.94,8.01-13,3.46-.02-10.05,16.31-4.09.02-7.3-12.96-8.02,13.03h-3.42Z"/>
    <path class="cls-3" d="M570.79,178.52c-1.14,0-1.94-.28-2.39-.85-.45-.57-.42-1.26.08-2.08l6.42-10.42c.5-.82,1.33-1.51,2.49-2.09,1.16-.58,2.31-.87,3.45-.87l14.56-.06c1.14,0,1.94.28,2.4.85.46.57.44,1.26-.06,2.08l-.6.97h-3.46s.39-.62.39-.62c.2-.33.27-.55.19-.67-.08-.11-.36-.17-.85-.16l-13.61.06c-.47,0-.81.06-1.04.17-.23.11-.45.34-.65.67l-6,9.74c-.2.33-.26.55-.17.67.09.11.36.17.83.17l13.61-.06c.48,0,.84-.06,1.06-.17.22-.11.43-.34.63-.67l1.97-3.19-5.39.02,1.52-2.47,8.85-.04-3.7,6c-.5.82-1.34,1.51-2.5,2.09-1.17.58-2.32.87-3.46.87l-14.56.06Z"/>
  </g>
  <path class="cls-4" d="M82.07,94.51l-18.29,57.78h-26.03s4.77-10.39,4.77-10.39h-8.89s-7.51,10.38-7.51,10.38H0s45.99-57.77,45.99-57.77h36.08ZM50.31,126.17c2.6-6.49,3.19-8.97,7.58-18.53-6.88,8.84-12.67,14.48-15.86,18.53h8.28Z"/>
  <path class="cls-4" d="M127.98,94.55l-21.92,38.65h15.32s-10.85,19.16-10.85,19.16h-40.64s32.78-57.82,32.78-57.82h25.3Z"/>
  <path class="cls-4" d="M175.66,94.55l-21.92,38.65h15.32s-10.85,19.16-10.85,19.16h-40.64s32.78-57.82,32.78-57.82h25.3Z"/>
</svg>