<?xml version="1.0" encoding="utf-8"?>
<!-- Generator: Adobe Illustrator 19.0.0, SVG Export Plug-In . SVG Version: 6.00 Build 0)  -->
<svg version="1.1" id="layer" xmlns="http://www.w3.org/2000/svg" xmlns:xlink="http://www.w3.org/1999/xlink" x="0px" y="0px"
	 viewBox="-153 -46 652 652" style="enable-background:new -153 -46 652 652;" xml:space="preserve">
<path d="M-35.2,233.7h-54.3c-6.4-0.3-12.3,3-15.5,8.5l-0.2,0.3c-3.7,7.5-22.8,45.4-26.1,57.2c-0.4,1.2-0.5,2.4-0.4,3.7
	c0.1,1.2,0.6,2.4,1.3,3.4c2.3,2.5,5.4,4.2,8.8,4.8l0.9,0.1h0.9c0.5,0.1,0.9,0.1,1.4,0.1c28-0.1,46.2,0,52.9,0.1
	c6.5,0.4,12.8-1.9,17.5-6.4c0.4-0.5,0.8-1,1.2-1.5c0.5-0.7,1.3-2.2,1.3-2.2l10.1-21h-35.1l-0.4,0.9c-3,6.9-6.6,15-7.1,15.9
	c-0.1,0.1-0.1,0.3-0.2,0.4l-0.1,0.3c-0.3,0.9-0.9,1.7-1.6,2.2c-1.5,1.1-2.4,1.3-7.4,1.3c-3.2,0-6.8-0.1-8-1.5
	c-1.2-1.5-0.9-3.7,0.4-6.7l20.4-43.7l0.6-1.3c0.6-1.9,1.9-3.5,3.6-4.5c2.2-0.7,4.5-0.9,6.8-0.6c5.1,0.2,5.8,0.4,7.2,2
	c0.3,0.5,0.5,1.1,0.5,1.7c0,0.8-0.2,1.6-0.5,2.3c-0.2,0.4-0.4,1-0.4,1s-0.8,1.9-2.7,6.1l-0.9,1.9h36.5l0.3-0.8c1-2.1,3-8.3,3.6-10.2
	c0-0.1,0.2-0.9,0.2-0.9l0.2-1.2c0,0,0.1-1.4,0.1-1.4c-0.6-5.6-5.1-10-10.8-10.3l-1.7-0.1L-35.2,233.7 M173.2,269.8l-6,14.1h37.2
	l5.9-14.1H173.2z M240.2,239.6l-2.4,2.4l-1.8,2.2l-2.2,3.9l-2.2,5.1l-2.1,5.3l31.7-0.1l3.8-8.3l1.2-2.2c0.1-0.3,0.6-1,0.7-1.2
	c0.8-1.5,2.2-2.6,3.8-3c0.7-0.1,1.4-0.2,2.1-0.2h3.9c4.4,0,6.5,0.3,7.4,2c0.4,0.7,0.6,1.5,0.6,2.3c0,0.6-0.1,1.2-0.3,1.8
	c-0.1,0.5-0.3,1-0.5,1.5c0,0-4.7,10.8-4.9,11.3c-0.5,0-47.1,2.9-47.1,2.9c-5.3-0.2-10.2,2.9-12.3,7.8c-0.1,0.2-10.6,24.1-11.1,25.8
	c-0.1,0.3-0.2,0.6-0.3,0.9l-0.2,1.1v0.6v0.9c0.3,5.8,5.3,10.2,11,9.9c0.2,0,0.5,0,0.7-0.1h0.7c0,0,2.6,0,2.8,0c0,0,45.1,0.1,50,0
	c5.2,0,10.3-1.3,15-3.7c2.9-1.8,5.2-4.5,6.5-7.7c0.9-2.1,22.2-51,22.5-52c0.1-0.1,0.1-0.3,0.2-0.4c0.1-0.4,0.2-0.8,0.3-1.2
	c0-0.3,0,0.1,0.1-1.1v-0.8l-0.1-1.8c-0.9-5.4-5.6-9.3-11.1-9.4l-3.6-0.2h-1.8h-45.7C250,234,244.6,236.1,240.2,239.6 M273.2,272.8
	c0,0,0.3,0,0.6,0c-0.5,0.9-1.3,2.8-1.3,2.8c-3.4,8-7.2,15.8-11.4,23.3c-2,2-2.6,2-7.7,1.9H250c-1.5,0.1-3-0.4-4.1-1.4
	c-0.6-0.7-0.9-1.6-0.9-2.6c0,0,0.1-0.6,0.1-1.1c0.1-0.5,0.6-2.1,0.6-2.1c0.2-0.4,1.1-2.6,5.7-13.5l0.3-0.5c1.4-3.2,4.3-5.5,7.8-6
	L273.2,272.8z M-3.3,239.6l-2.4,2.4l-1.7,2.2l-2.2,3.9l-2.2,5.1l-2.1,5.3l31.7-0.1l3.8-8.3l1.2-2.2c0.1-0.3,0.5-1,0.7-1.2
	c0.8-1.5,2.1-2.6,3.8-3c0.7-0.1,1.4-0.2,2.1-0.2h3.8c4.4,0,6.4,0.3,7.4,2c0.4,0.7,0.6,1.5,0.7,2.3c-0.1,0.6-0.2,1.2-0.3,1.8
	c-0.1,0.5-0.3,1-0.5,1.5c0,0-4.6,10.8-4.8,11.3c-0.6,0-47.1,2.9-47.1,2.9c-5.4-0.2-10.3,2.9-12.5,7.8c-0.1,0.2-10.5,24.1-11,25.8
	c0-0.1-0.3,0.9-0.3,0.9l-0.2,1.1l-0.1,0.6v0.9c0.3,5.8,5.3,10.2,11.1,9.9c0.2,0,0.4,0,0.7-0.1h0.7c0,0,2.6,0,2.8,0
	c0,0,45.3,0.1,50.1,0c5.2,0,10.3-1.3,14.9-3.7c2.9-1.8,5.3-4.5,6.6-7.7c0.9-2.1,22.1-51,22.4-52c0.1-0.1,0.1-0.3,0.2-0.4
	c0.1-0.4,0.2-0.8,0.3-1.2c0-0.3,0,0.1,0.1-1.1v-0.8c0-0.1-0.1-1.8-0.1-1.8c-1-5.4-5.6-9.3-11.1-9.4l-3.5-0.2h-1.8H12.1
	C6.5,234,1.1,236.1-3.3,239.6 M29.8,272.8c0,0,0.3,0,0.6,0c-0.4,0.9-1.3,2.8-1.3,2.8c-3.4,8-7.2,15.8-11.3,23.3
	c-2.1,2-2.7,2-7.8,1.9H6.5c-1.5,0.1-3-0.4-4.1-1.4c-0.6-0.7-0.9-1.6-0.9-2.6c0,0,0.1-0.6,0.2-1.1c0.1-0.5,0.6-2.1,0.6-2.1
	c0.2-0.4,1.1-2.6,5.7-13.5l0.3-0.5c1.4-3.2,4.4-5.5,7.9-6L29.8,272.8z M145.8,234.1l-1,0.2l-3.9,0.9c-4.9,1.2-9.9,2-15,2.5
	c-0.2,0-0.4-0.1-0.5-0.2c-0.2-0.2-0.2-0.2-0.2-0.4c0-0.1,0-0.2,0-0.3v-3H91.4L57,312h33.6c0,0,27-59.5,27.1-59.8
	c0.3-0.7,0.7-1.3,1.1-1.9c0.9-1.3,2.4-2.6,7.4-2.5h1.5c2.9,0,6.1-0.1,7.5,1.6c0.8,0.8,1.1,1.9,0.9,3c-0.2,1.2-0.5,2.4-1,3.6
	l-24.7,56.1h33.9l26.1-60.5c1.1-2.4,1.7-5,1.6-7.7c-0.3-3.3-2.3-6.3-5.2-7.9C160.3,232.9,152.8,232.2,145.8,234.1 M442.5,233.8
	l-24.7,5.8c-1,0.3-2,0.5-3,0.6c-0.2-0.3-0.5-0.7-0.7-1l-0.5-0.6c-0.9-1.1-1.9-2-3.1-2.7c-6.5-3.1-13.9-3.8-20.9-1.8l-4.2,1
	c-5.1,1.2-10.2,2-15.4,2.6c-0.5,0-0.8,0.1-0.9-0.1c-0.2-0.2-0.2-0.8-0.2-0.8l-0.1-3h-34L300.6,312h33.6l27.1-59.8
	c0,0,0.5-0.8,1.1-1.9c0.9-1.3,2.4-2.6,7.5-2.5h1.6c2.9,0,6.1-0.1,7.5,1.6c0.7,0.8,1,1.9,0.9,3c-0.2,1.2-0.5,2.4-1,3.6l-24.8,56.1
	H388c0,0,23.3-53.9,25.6-58.7l0.9-1.9c1.7-2.7,4.9-4.1,8.1-3.7h1.5c2.8,0,6.1-0.1,7.7,1.4c0.7,0.6,1,1.5,0.9,2.4
	c-0.1,1.2-0.3,2.4-0.8,3.5l-0.6,1.6l-24.5,55.3h34l26.2-60.8c0.9-2.2,1.3-4.5,1.2-6.9c0-3.4-1.7-6.5-4.5-8.3
	C457.1,233,449.6,232.2,442.5,233.8 M456.3,303.9c3.2,0,5.8,2.6,5.8,5.8c0,3.2-2.6,5.8-5.8,5.8c-3.2,0.1-5.9-2.4-6-5.6
	c-0.1-3.2,2.4-5.9,5.6-6C456,303.9,456.2,303.9,456.3,303.9 M456.3,316.8c3.9-0.1,7-3.2,7.1-7.1c0-3.9-3.2-7.1-7.1-7.1
	c-3.9,0-7.1,3.2-7.1,7.1C449.2,313.7,452.4,316.8,456.3,316.8 M455.1,306.9h1.1c0.9,0,1.9,0,1.9,1.1s-1,1.1-1.9,1.1h-1.1V306.9z
	 M455.1,310.4h1.1l2,3.3h1.5l-2-3.4c1.1-0.1,1.9-1,1.9-2.1c0,0,0-0.1,0-0.1c0-1.6-0.9-2.4-2.8-2.4h-3.2v8h1.5L455.1,310.4z"/>
</svg>
