<svg xmlns="http://www.w3.org/2000/svg" xml:space="preserve" width="70mm" height="18mm" viewBox="0 0 7000 1800" href="/"><defs><style>.logo_svg__fil1{fill:#fff;fill-rule:nonzero}</style></defs><g id="logo_svg__Layer_x0020_1"><path d="M1513.52 661.47c-2.64 93.05-33.97 386.11-48.14 466.87-.77 4.38-17.22 127.02-50.19 128.3-31.06 1.19-40.47-66.91-44.89-147.25-3.04-55.36-6.29-171.77-17.08-212.49-2.79-10.62-10.37-24.86-20.68-30.05-17.53-8.88-45.73 13.31-52.23 19.12-80.4 71.91-86.87 83.31-257.78 275.58-39 43.85-147.49 160.62-170.79 169.44-39.31 14.86-66.03-7.61-80.73-31.67-26.79-43.83-20.36-117.01-20.7-135.05-2-89.97 8.25-252.24 11.26-342.37.85-22.78 6.56-86.92-23.45-103.71-32.14-18-111.09 82.79-147.34 125.23-62.77 73.5-272.52 374.67-327.18 464.21-104.61 171.19-191.1 358.03-237.13 335.2-46.61-23.05 68-298.36 116.77-388.66 96.58-178.72 200.64-354.4 325.71-515.37 23.18-29.8 168.98-219.89 260.41-280.18 23.45-15.46 75.57-57.95 128.97-37.32 29.78 11.49 47.27 51.52 48.36 77.74 3.4 83.8-50.31 643.36-43.19 635.02 56.1-65.88 240.04-282.71 290.95-341.79 69.8-81.02 115.31-127.19 162.62-164.05 12.66-9.86 94.58-75.77 148.2-51.27 49.64 22.69 48.4 78.87 48.25 84.52z" style="fill:#ffcc29;fill-rule:nonzero"></path><path d="m6913.15 727.29-78.84 294.29c-10.04 37.36-48.76 67.94-86.2 67.94H6316.3l48.63-181.59c10.55-39.42 51.33-71.6 90.79-71.6h56.77l-39.4 147.02h243.03c18.82-70.15 37.68-140.55 58.36-217.8h-299.8c-39.45 0-62.98-32.17-52.41-71.59l9.25-34.56h431.84c37.48 0 59.79 30.55 49.79 67.89zM5658.21 1089.52h-94.24c-27.36 0-47.05-14.26-53.19-38.53l-7.8-30.99h-160.73l41.71-52.88c19.16-24.3 46.44-38.55 73.85-38.55h22.04l-35.29-139.46-52.06 66.01-57.97 73.45-72.08 91.43-24.43 30.99c-19.15 24.27-46.43 38.53-73.82 38.53h-94.26l311.46-391.9c19.15-24.12 46.29-38.22 73.59-38.22h91.89l111.33 430.12zM3925.99 659.39l-9.21 34.4c-10.59 39.5-51.45 71.74-90.95 71.74h-117.22c-28.92 107.99-57.88 216-86.8 323.99h-128.39c28.96-107.99 57.89-216 86.84-323.99h-188.95l9.2-34.42c10.61-39.46 51.43-71.72 90.96-71.72h434.52zM6331.53 659.39l-115.26 430.13h-128.41l-167.24-244.08-46.21 172.35c-10.56 39.49-51.44 71.73-90.92 71.73h-56.68l115.26-430.13h128.38l167.26 244.08 46.22-172.37c10.56-39.49 51.43-71.71 90.96-71.71h56.64zM3279.08 659.37h-391.57c-39.08 0-79.52 31.88-89.97 70.94-25.73 96.09-51.5 192.18-77.25 288.28-10.45 39.04 12.88 70.93 52 70.93h391.56c39.09 0 79.49-31.89 89.97-70.93 25.74-96.1 51.49-192.19 77.21-288.28 10.49-39.06-12.82-70.94-51.95-70.94zm-144.22 323.97h-276.71c36.98-137.98 23.4-87.38 58.35-217.8h276.73c-34.93 130.42-21.38 79.82-58.37 217.8zM4457.49 659.39h-391.57c-39.12 0-79.52 31.86-89.96 70.93-25.79 96.08-51.52 192.18-77.26 288.25-10.47 39.07 12.88 70.95 51.96 70.95h391.57c39.1 0 79.52-31.88 89.99-70.95 25.74-96.07 51.49-192.17 77.22-288.25 10.49-39.07-12.86-70.93-51.95-70.93zm-144.2 323.96h-276.75c36.96-138 23.42-87.37 58.34-217.81h276.76c-34.98 130.44-21.39 79.81-58.35 217.81zM5012.52 1055.07l-9.19 34.45h-421.51c-37.45 0-59.78-30.5-49.76-67.93l97.07-362.19h56.65c39.5 0 63.09 32.22 52.52 71.7-22.53 84.09-45.07 168.15-67.6 252.25h289.34c39.5 0 63.12 32.22 52.48 71.72zM2718.57 659.37l-115 430.15h-128.52l55.39-206.61-152.57 206.61h-135.11l-42.33-206.61-55.62 206.61h-129.15l114.58-430.15h94.24c27.44 0 47.14 14.26 53.27 38.58l54.34 261.85 218.34-261.85c19.2-24.32 46.55-38.58 73.96-38.58h94.18z"></path><path d="M1750.08 860.2c-.94-79.18-19.58-172.56-37.39-227.33-.83-2.63-1.75-5.37-2.74-8.1-.87-2.75-1.79-5.48-2.71-8.07-19.06-54.37-60.85-139.93-108.1-203.48C1348.04 75 866.07 3.05 527.59 253.68 317.14 409.47 209.91 651.37 217.16 893.41c.44 16 12.12 33.56 28.08 35.65 15.34 1.96 36.29-11.52 36.08-38.07-1.38-201.3 102.2-399.79 274.03-532.05C714.05 236.8 910.3 197.31 1092.4 233.67c21.96 4.4 43.84 9.96 65.47 16.59 0 0 .06.07.09.01 127.33 39.16 244.27 116.82 331.62 230.43 42.67 55.43 76.01 115.21 97.97 177.92.81 2.24 1.56 4.45 2.31 6.71.76 2.24 1.51 4.47 2.22 6.73 20.55 63.2 30.29 130.94 29.94 200.9-.59 143.31-46.51 275.95-124.03 384.29-.06-.04-.08.06-.08.06-13.17 18.39-27.19 36.07-41.99 52.88-122.78 139.32-302.8 226.88-503.06 225.92-216.84-1.01-419.54-96.07-540.49-256.99-15.93-21.25-40.76-19.27-51.77-8.41-11.42 11.33-10.08 32.39-.71 45.37 140.96 196.9 372.89 324.29 634.69 320.6 421.15-5.86 760.84-355.26 755.5-776.48z" style="fill:#ffcc28;fill-rule:nonzero"></path><path d="M3338.41 1641.75c-27.5 0-51.54-4.98-72.1-14.93-20.57-9.96-36.35-23.97-47.35-42.05-11.01-18.08-16.51-38.9-16.51-62.48 0-31.17 7.14-59.27 21.42-84.28 14.28-25.03 34.38-44.73 60.32-59.15 25.93-14.4 55.66-21.6 89.2-21.6 24.63 0 46.37 4.19 65.22 12.57 18.87 8.38 33.15 20.43 42.84 36.15l-45.98 37.72c-14.66-21.48-36.81-32.22-66.41-32.22-20.16 0-37.98 4.71-53.44 14.15-15.45 9.43-27.44 22.26-35.95 38.51-8.52 16.24-12.78 34.31-12.78 54.22 0 21.22 6.75 38.06 20.24 50.5 13.49 12.44 32.43 18.66 56.78 18.66 29.09 0 53.44-10.61 73.1-31.83l37.72 38.51c-27.25 31.7-66.02 47.55-116.32 47.55zm304.54-219.27c23.58 0 42.31 6.29 56.2 18.86 13.88 12.58 20.82 30.39 20.82 53.45 0 8.38-.91 16.76-2.75 25.15l-23.57 117.09h-61.31l22.8-113.16c1.04-4.46 1.56-9.31 1.56-14.54 0-11.01-3-19.39-9.03-25.15-6.02-5.76-15.07-8.65-27.12-8.65-15.71 0-28.74 4.52-39.09 13.56-10.36 9.03-17.36 22.59-21.02 40.67l-21.23 107.27h-61.3l58.16-291.56h61.3l-19.65 99.41c18.08-14.93 39.82-22.4 65.23-22.4zm219.27 217.7c-21.22 0-39.88-3.93-56-11.79-16.11-7.86-28.55-18.93-37.32-33.2-8.78-14.28-13.17-30.85-13.17-49.71 0-23.32 5.51-44.28 16.5-62.87 11.01-18.61 26.2-33.27 45.59-44.02 19.38-10.74 41.26-16.11 65.62-16.11 21.48 0 40.21 3.93 56.19 11.79 15.98 7.86 28.36 18.93 37.14 33.2 8.77 14.28 13.16 30.85 13.16 49.72 0 23.31-5.44 44.27-16.3 62.87-10.88 18.6-26.07 33.26-45.59 44.01-19.52 10.74-41.45 16.11-65.82 16.11zm3.93-50.69c11.79 0 22.4-2.95 31.83-8.84 9.43-5.9 16.76-14.08 22.01-24.57 5.23-10.47 7.86-22.52 7.86-36.14 0-14.42-4.2-25.81-12.58-34.19-8.38-8.39-20.18-12.58-35.37-12.58-12.05 0-22.79 2.95-32.22 8.84-9.43 5.9-16.76 14.08-22.01 24.57-5.23 10.47-7.85 22.52-7.85 36.15 0 14.41 4.25 25.8 12.77 34.18 8.51 8.39 20.36 12.58 35.56 12.58zm253.06 50.69c-21.22 0-39.88-3.93-55.99-11.79-16.12-7.86-28.56-18.93-37.33-33.2-8.78-14.28-13.17-30.85-13.17-49.71 0-23.32 5.5-44.28 16.5-62.87 11.01-18.61 26.21-33.27 45.59-44.02 19.38-10.74 41.26-16.11 65.63-16.11 21.47 0 40.2 3.93 56.19 11.79 15.97 7.86 28.35 18.93 37.13 33.2 8.77 14.28 13.16 30.85 13.16 49.72 0 23.31-5.44 44.27-16.3 62.87-10.88 18.6-26.07 33.26-45.59 44.01-19.52 10.74-41.45 16.11-65.82 16.11zm3.93-50.69c11.79 0 22.4-2.95 31.83-8.84 9.43-5.9 16.76-14.08 22.01-24.57 5.24-10.47 7.86-22.52 7.86-36.14 0-14.42-4.2-25.81-12.58-34.19-8.38-8.39-20.17-12.58-35.37-12.58-12.05 0-22.79 2.95-32.21 8.84-9.44 5.9-16.77 14.08-22.02 24.57-5.23 10.47-7.85 22.52-7.85 36.15 0 14.41 4.25 25.8 12.77 34.18 8.52 8.39 20.37 12.58 35.56 12.58zm219.67 50.69c-18.34 0-35.7-2.03-52.07-6.09-16.38-4.06-29.14-9.37-38.32-15.92l23.58-44.4c9.17 6.02 20.37 10.87 33.6 14.54s26.53 5.5 39.88 5.5c13.88 0 24.24-1.77 31.05-5.3 6.8-3.54 10.21-8.58 10.21-15.14 0-5.23-3.01-9.03-9.03-11.39-6.03-2.36-15.72-4.84-29.08-7.47-15.2-2.88-27.71-6.02-37.53-9.43-9.82-3.4-18.34-8.97-25.54-16.7-7.21-7.72-10.81-18.27-10.81-31.63 0-23.32 9.76-41.52 29.28-54.62 19.52-13.1 45.12-19.65 76.82-19.65 14.67 0 28.95 1.57 42.83 4.72 13.89 3.14 25.67 7.46 35.36 12.97l-22 44.79c-17.29-10.74-38.11-16.11-62.48-16.11-13.36 0-23.51 1.97-30.45 5.9-6.94 3.93-10.41 8.9-10.41 14.93 0 5.5 3.01 9.5 9.03 11.98 6.02 2.49 16.11 5.18 30.26 8.06 14.94 2.88 27.18 5.96 36.74 9.23 9.57 3.28 17.88 8.71 24.95 16.31 7.08 7.6 10.61 17.95 10.61 31.04 0 23.58-9.89 41.79-29.67 54.62-19.78 12.84-45.38 19.26-76.81 19.26zm361.11-124.57c0 9.7-1.17 20.44-3.53 32.22H4538.5c2.09 28.82 20.3 43.23 54.62 43.23 10.74 0 21.01-1.7 30.84-5.11 9.83-3.4 18.41-8.25 25.74-14.54l25.54 40.48c-11.79 9.43-25.27 16.5-40.48 21.22-15.19 4.71-31.16 7.07-47.93 7.07-21.74 0-40.8-3.86-57.18-11.59-16.37-7.73-28.94-18.8-37.72-33.21-8.77-14.41-13.16-31.04-13.16-49.9 0-23.32 5.3-44.34 15.91-63.07 10.61-18.73 25.35-33.4 44.21-44.01s40.34-15.92 64.44-15.92c20.43 0 38.18 3.8 53.25 11.4 15.06 7.6 26.72 18.47 34.97 32.61 8.26 14.15 12.37 30.52 12.37 49.12zm-103.34-47.15c-14.41 0-26.59 3.86-36.54 11.59-9.96 7.73-17.04 18.4-21.23 32.03h104.92c0-13.63-4.25-24.3-12.77-32.03-8.51-7.73-19.97-11.59-34.38-11.59zm483.72-42.83-140.67 225.55c-15.2 24.63-29.93 41.66-44.21 51.09-14.28 9.43-31.76 14.14-52.46 14.14-11 0-21.8-1.7-32.42-5.11-10.61-3.4-18.92-7.85-24.94-13.36l28.28-44.01c9.43 8.65 20.7 12.97 33.8 12.97 7.86 0 14.67-1.96 20.43-5.89 5.76-3.93 11.66-10.61 17.69-20.05l1.96-3.53-48.73-211.8h61.3l31.44 143.82 88.02-143.82h60.51zm87.64 214.55c-21.23 0-39.89-3.93-56-11.79-16.11-7.86-28.56-18.93-37.33-33.2-8.78-14.28-13.17-30.85-13.17-49.71 0-23.32 5.5-44.28 16.5-62.87 11.01-18.61 26.2-33.27 45.59-44.02 19.39-10.74 41.26-16.11 65.63-16.11 21.48 0 40.2 3.93 56.19 11.79 15.98 7.86 28.35 18.93 37.13 33.2 8.77 14.28 13.16 30.85 13.16 49.72 0 23.31-5.43 44.27-16.3 62.87-10.88 18.6-26.07 33.26-45.59 44.01-19.51 10.74-41.45 16.11-65.81 16.11zm3.92-50.69c11.8 0 22.41-2.95 31.83-8.84 9.43-5.9 16.77-14.08 22.01-24.57 5.24-10.47 7.86-22.52 7.86-36.14 0-14.42-4.2-25.81-12.58-34.19-8.38-8.39-20.17-12.58-35.36-12.58-12.06 0-22.79 2.95-32.22 8.84-9.44 5.9-16.77 14.08-22.01 24.57-5.24 10.47-7.86 22.52-7.86 36.15 0 14.41 4.26 25.8 12.77 34.18 8.52 8.39 20.37 12.58 35.56 12.58zm397.67-163.86-42.04 211.4h-58.16l4.32-22.79c-9.17 8.65-19.65 15.13-31.44 19.45-11.78 4.33-24.22 6.49-37.32 6.49-23.06 0-41.46-6.29-55.22-18.86-13.75-12.58-20.63-30.26-20.63-53.05 0-8.65.92-17.16 2.75-25.54l23.19-117.1h61.3l-22.39 113.17a73.941 73.941 0 0 0-1.58 15.32c0 22.01 11.79 33.01 35.37 33.01 15.46 0 28.22-4.52 38.31-13.56 10.09-9.03 16.97-22.59 20.63-40.67l21.61-107.27h61.3zm110.03 25.15c9.17-9.96 20.24-17.16 33.21-21.62 12.96-4.45 28.23-6.68 45.78-6.68l-11.01 56.59c-7.33-.53-12.05-.79-14.14-.79-18.61 0-33.48 4.59-44.61 13.76-11.13 9.16-18.66 23.44-22.59 42.83l-20.43 102.16h-61.3l42.04-211.4h58.16l-5.11 25.15zm569.78-25.15-116.71 211.4h-60.51l-24.36-131.63-72.7 131.63h-59.73l-37.33-211.4h55.8l23.19 142.24 79.37-142.24h52.65l23.98 142.24 78.59-142.24h57.76zm236.17 0-42.05 211.4h-58.15l3.92-20.82c-17.55 15.98-39.16 23.97-64.84 23.97-16.5 0-31.69-3.8-45.58-11.4-13.88-7.6-24.95-18.53-33.2-32.81-8.26-14.28-12.37-31.11-12.37-50.49 0-23.32 5.16-44.34 15.52-63.07 10.34-18.73 24.43-33.4 42.23-44.01 17.82-10.61 37.47-15.92 58.95-15.92 32.48 0 55.41 10.61 68.77 31.83l5.5-28.68h61.3zm-142.25 163.86c12.04 0 22.79-2.95 32.22-8.84 9.43-5.9 16.77-14.08 22.01-24.57 5.23-10.47 7.86-22.52 7.86-36.14 0-14.42-4.26-25.81-12.77-34.19-8.52-8.39-20.38-12.58-35.57-12.58-12.04 0-22.79 2.95-32.22 8.84-9.43 5.9-16.77 14.08-22 24.57-5.24 10.47-7.86 22.52-7.86 36.15 0 14.41 4.25 25.8 12.77 34.18 8.51 8.39 20.36 12.58 35.56 12.58zm408.67-163.86-140.67 225.55c-15.2 24.63-29.94 41.66-44.21 51.09-14.28 9.43-31.77 14.14-52.47 14.14-11 0-21.8-1.7-32.41-5.11-10.61-3.4-18.93-7.85-24.96-13.36l28.3-44.01c9.43 8.65 20.69 12.97 33.79 12.97 7.86 0 14.68-1.96 20.43-5.89 5.77-3.93 11.66-10.61 17.69-20.05l1.97-3.53-48.73-211.8h61.3l31.44 143.82 88.01-143.82h60.52z"></path></g></svg>